<mxfile host="Electron" agent="Mozilla/5.0 (Windows NT 10.0; Win64; x64) AppleWebKit/537.36 (KHTML, like Gecko) draw.io/28.0.6 Chrome/138.0.7204.100 Electron/37.2.3 Safari/537.36" version="28.0.6">
  <diagram id="Ht1M8jgEwFfnCIfOTk4-" name="Page-1">
    <mxGraphModel dx="3944" dy="1402" grid="1" gridSize="10" guides="1" tooltips="1" connect="1" arrows="1" fold="1" page="1" pageScale="1" pageWidth="1169" pageHeight="827" math="0" shadow="0">
      <root>
        <mxCell id="0" />
        <mxCell id="1" parent="0" />
        <mxCell id="aYJNtZo8pQZh-jJPkHBO-1" value="" style="rounded=0;whiteSpace=wrap;html=1;labelBackgroundColor=none;fillColor=none;dashed=1;container=1;pointerEvents=0;collapsible=0;recursiveResize=0;" parent="1" vertex="1">
          <mxGeometry x="307" y="1418" width="443" height="432" as="geometry" />
        </mxCell>
        <mxCell id="aYJNtZo8pQZh-jJPkHBO-32" value="S3&lt;br&gt;(&lt;span style=&quot;color: rgb(51, 51, 51); font-family: &amp;quot;PT Sans&amp;quot;, Arial, Helvetica, sans-serif, sans-serif; font-size: 13px; text-align: start; text-wrap-mode: wrap; background-color: rgb(255, 255, 255);&quot;&gt;yoma-job-seeker-uat&lt;/span&gt;)" style="sketch=0;points=[[0,0,0],[0.25,0,0],[0.5,0,0],[0.75,0,0],[1,0,0],[0,1,0],[0.25,1,0],[0.5,1,0],[0.75,1,0],[1,1,0],[0,0.25,0],[0,0.5,0],[0,0.75,0],[1,0.25,0],[1,0.5,0],[1,0.75,0]];outlineConnect=0;fontColor=#232F3E;fillColor=#7AA116;strokeColor=#ffffff;dashed=0;verticalLabelPosition=bottom;verticalAlign=top;align=center;html=1;fontSize=12;fontStyle=0;aspect=fixed;shape=mxgraph.aws4.resourceIcon;resIcon=mxgraph.aws4.s3;" parent="aYJNtZo8pQZh-jJPkHBO-1" vertex="1">
          <mxGeometry x="85" y="271" width="78" height="78" as="geometry" />
        </mxCell>
        <mxCell id="aYJNtZo8pQZh-jJPkHBO-35" value="Lambda&lt;br&gt;(&lt;span style=&quot;color: rgb(51, 51, 51); font-family: &amp;quot;PT Sans&amp;quot;, Arial, Helvetica, sans-serif, sans-serif; font-size: 13px; text-align: start; text-wrap-mode: wrap; background-color: rgb(255, 255, 255);&quot;&gt;yoma-job-seeker-uat&lt;/span&gt;)" style="sketch=0;points=[[0,0,0],[0.25,0,0],[0.5,0,0],[0.75,0,0],[1,0,0],[0,1,0],[0.25,1,0],[0.5,1,0],[0.75,1,0],[1,1,0],[0,0.25,0],[0,0.5,0],[0,0.75,0],[1,0.25,0],[1,0.5,0],[1,0.75,0]];outlineConnect=0;fontColor=#232F3E;fillColor=#ED7100;strokeColor=#ffffff;dashed=0;verticalLabelPosition=bottom;verticalAlign=top;align=center;html=1;fontSize=12;fontStyle=0;aspect=fixed;shape=mxgraph.aws4.resourceIcon;resIcon=mxgraph.aws4.lambda;" parent="aYJNtZo8pQZh-jJPkHBO-1" vertex="1">
          <mxGeometry x="315" y="50" width="78" height="78" as="geometry" />
        </mxCell>
        <mxCell id="aYJNtZo8pQZh-jJPkHBO-33" value="API Gateway&lt;br&gt;(&lt;span style=&quot;color: rgb(51, 51, 51); font-family: &amp;quot;PT Sans&amp;quot;, Arial, Helvetica, sans-serif, sans-serif; font-size: 13px; text-align: start; text-wrap-mode: wrap; background-color: rgb(255, 255, 255);&quot;&gt;yoma-job-seeker-uat&lt;/span&gt;)" style="sketch=0;points=[[0,0,0],[0.25,0,0],[0.5,0,0],[0.75,0,0],[1,0,0],[0,1,0],[0.25,1,0],[0.5,1,0],[0.75,1,0],[1,1,0],[0,0.25,0],[0,0.5,0],[0,0.75,0],[1,0.25,0],[1,0.5,0],[1,0.75,0]];outlineConnect=0;fontColor=#232F3E;fillColor=#E7157B;strokeColor=#ffffff;dashed=0;verticalLabelPosition=bottom;verticalAlign=top;align=center;html=1;fontSize=12;fontStyle=0;aspect=fixed;shape=mxgraph.aws4.resourceIcon;resIcon=mxgraph.aws4.api_gateway;" parent="aYJNtZo8pQZh-jJPkHBO-1" vertex="1">
          <mxGeometry x="75" y="50" width="78" height="78" as="geometry" />
        </mxCell>
        <mxCell id="aYJNtZo8pQZh-jJPkHBO-42" style="edgeStyle=orthogonalEdgeStyle;rounded=0;orthogonalLoop=1;jettySize=auto;html=1;entryX=0;entryY=0.5;entryDx=0;entryDy=0;entryPerimeter=0;" parent="aYJNtZo8pQZh-jJPkHBO-1" source="aYJNtZo8pQZh-jJPkHBO-33" target="aYJNtZo8pQZh-jJPkHBO-35" edge="1">
          <mxGeometry relative="1" as="geometry" />
        </mxCell>
        <mxCell id="aYJNtZo8pQZh-jJPkHBO-2" value="AWS Cloud" style="points=[[0,0],[0.25,0],[0.5,0],[0.75,0],[1,0],[1,0.25],[1,0.5],[1,0.75],[1,1],[0.75,1],[0.5,1],[0.25,1],[0,1],[0,0.75],[0,0.5],[0,0.25]];outlineConnect=0;gradientColor=none;html=1;whiteSpace=wrap;fontSize=12;fontStyle=0;shape=mxgraph.aws4.group;grIcon=mxgraph.aws4.group_aws_cloud_alt;strokeColor=#232F3E;fillColor=none;verticalAlign=top;align=left;spacingLeft=30;fontColor=#232F3E;dashed=0;labelBackgroundColor=#ffffff;container=1;pointerEvents=0;collapsible=0;recursiveResize=0;" parent="1" vertex="1">
          <mxGeometry y="320" width="1310" height="1560" as="geometry" />
        </mxCell>
        <mxCell id="aYJNtZo8pQZh-jJPkHBO-68" value="public-1a(172.21.104.0/24)&lt;br&gt;public-1b(172.21.105.0/24)&lt;br&gt;public-1c(172.21.106.0/24)" style="points=[[0,0],[0.25,0],[0.5,0],[0.75,0],[1,0],[1,0.25],[1,0.5],[1,0.75],[1,1],[0.75,1],[0.5,1],[0.25,1],[0,1],[0,0.75],[0,0.5],[0,0.25]];outlineConnect=0;gradientColor=none;html=1;whiteSpace=wrap;fontSize=12;fontStyle=0;container=1;pointerEvents=0;collapsible=0;recursiveResize=0;shape=mxgraph.aws4.group;grIcon=mxgraph.aws4.group_security_group;grStroke=0;strokeColor=#7AA116;fillColor=#F2F6E8;verticalAlign=top;align=left;spacingLeft=30;fontColor=#248814;dashed=0;" parent="aYJNtZo8pQZh-jJPkHBO-2" vertex="1">
          <mxGeometry x="335" y="210" width="230" height="350" as="geometry" />
        </mxCell>
        <mxCell id="aYJNtZo8pQZh-jJPkHBO-71" value="NAT" style="sketch=0;outlineConnect=0;fontColor=#232F3E;gradientColor=none;fillColor=#8C4FFF;strokeColor=none;dashed=0;verticalLabelPosition=bottom;verticalAlign=top;align=center;html=1;fontSize=12;fontStyle=0;aspect=fixed;pointerEvents=1;shape=mxgraph.aws4.nat_gateway;" parent="aYJNtZo8pQZh-jJPkHBO-68" vertex="1">
          <mxGeometry x="62.379999999999995" y="55" width="78" height="78" as="geometry" />
        </mxCell>
        <mxCell id="aYJNtZo8pQZh-jJPkHBO-51" value="Load Balancer&lt;br&gt;(waf-loadbalancer-prod-003)" style="outlineConnect=0;dashed=0;verticalLabelPosition=bottom;verticalAlign=top;align=center;html=1;shape=mxgraph.aws3.application_load_balancer;fillColor=#F58534;gradientColor=none;" parent="aYJNtZo8pQZh-jJPkHBO-2" vertex="1">
          <mxGeometry x="401.88" y="401" width="69" height="72" as="geometry" />
        </mxCell>
        <mxCell id="aYJNtZo8pQZh-jJPkHBO-34" value="Cloud front&lt;br&gt;(E1C4VDWRA3RRQ2)" style="sketch=0;points=[[0,0,0],[0.25,0,0],[0.5,0,0],[0.75,0,0],[1,0,0],[0,1,0],[0.25,1,0],[0.5,1,0],[0.75,1,0],[1,1,0],[0,0.25,0],[0,0.5,0],[0,0.75,0],[1,0.25,0],[1,0.5,0],[1,0.75,0]];outlineConnect=0;fontColor=#232F3E;fillColor=#8C4FFF;strokeColor=#ffffff;dashed=0;verticalLabelPosition=bottom;verticalAlign=top;align=center;html=1;fontSize=12;fontStyle=0;aspect=fixed;shape=mxgraph.aws4.resourceIcon;resIcon=mxgraph.aws4.cloudfront;" parent="aYJNtZo8pQZh-jJPkHBO-2" vertex="1">
          <mxGeometry x="190" y="1240" width="78" height="78" as="geometry" />
        </mxCell>
        <mxCell id="aYJNtZo8pQZh-jJPkHBO-43" value="" style="rounded=0;whiteSpace=wrap;html=1;labelBackgroundColor=none;fillColor=none;dashed=1;container=1;pointerEvents=0;collapsible=0;recursiveResize=0;" parent="aYJNtZo8pQZh-jJPkHBO-2" vertex="1">
          <mxGeometry x="309" y="760" width="440" height="220" as="geometry" />
        </mxCell>
        <mxCell id="aYJNtZo8pQZh-jJPkHBO-50" style="rounded=0;orthogonalLoop=1;jettySize=auto;html=1;" parent="aYJNtZo8pQZh-jJPkHBO-2" source="aYJNtZo8pQZh-jJPkHBO-49" target="aYJNtZo8pQZh-jJPkHBO-44" edge="1">
          <mxGeometry relative="1" as="geometry" />
        </mxCell>
        <mxCell id="aYJNtZo8pQZh-jJPkHBO-49" value="Cloud front&lt;br&gt;(E1LU29R3CUWQMQ)" style="sketch=0;points=[[0,0,0],[0.25,0,0],[0.5,0,0],[0.75,0,0],[1,0,0],[0,1,0],[0.25,1,0],[0.5,1,0],[0.75,1,0],[1,1,0],[0,0.25,0],[0,0.5,0],[0,0.75,0],[1,0.25,0],[1,0.5,0],[1,0.75,0]];outlineConnect=0;fontColor=#232F3E;fillColor=#8C4FFF;strokeColor=#ffffff;dashed=0;verticalLabelPosition=bottom;verticalAlign=top;align=center;html=1;fontSize=12;fontStyle=0;aspect=fixed;shape=mxgraph.aws4.resourceIcon;resIcon=mxgraph.aws4.cloudfront;" parent="aYJNtZo8pQZh-jJPkHBO-2" vertex="1">
          <mxGeometry x="190" y="811" width="78" height="78" as="geometry" />
        </mxCell>
        <mxCell id="aYJNtZo8pQZh-jJPkHBO-44" value="S3&lt;br&gt;(&lt;span style=&quot;color: rgb(51, 51, 51); font-family: &amp;quot;PT Sans&amp;quot;, Arial, Helvetica, sans-serif, sans-serif; font-size: 13px; text-align: start; text-wrap-mode: wrap; background-color: rgb(255, 255, 255);&quot;&gt;job-portal-admin-uat&lt;/span&gt;)" style="sketch=0;points=[[0,0,0],[0.25,0,0],[0.5,0,0],[0.75,0,0],[1,0,0],[0,1,0],[0.25,1,0],[0.5,1,0],[0.75,1,0],[1,1,0],[0,0.25,0],[0,0.5,0],[0,0.75,0],[1,0.25,0],[1,0.5,0],[1,0.75,0]];outlineConnect=0;fontColor=#232F3E;fillColor=#7AA116;strokeColor=#ffffff;dashed=0;verticalLabelPosition=bottom;verticalAlign=top;align=center;html=1;fontSize=12;fontStyle=0;aspect=fixed;shape=mxgraph.aws4.resourceIcon;resIcon=mxgraph.aws4.s3;" parent="aYJNtZo8pQZh-jJPkHBO-2" vertex="1">
          <mxGeometry x="392" y="811" width="78" height="78" as="geometry" />
        </mxCell>
        <mxCell id="bQRG8dj-d8mDXIb9NdE8-13" style="rounded=0;orthogonalLoop=1;jettySize=auto;html=1;" edge="1" parent="aYJNtZo8pQZh-jJPkHBO-2" source="aYJNtZo8pQZh-jJPkHBO-66" target="aYJNtZo8pQZh-jJPkHBO-51">
          <mxGeometry relative="1" as="geometry" />
        </mxCell>
        <mxCell id="aYJNtZo8pQZh-jJPkHBO-66" value="WAF&lt;br&gt;(WAF-Loadbalancer-Prod-003)" style="sketch=0;points=[[0,0,0],[0.25,0,0],[0.5,0,0],[0.75,0,0],[1,0,0],[0,1,0],[0.25,1,0],[0.5,1,0],[0.75,1,0],[1,1,0],[0,0.25,0],[0,0.5,0],[0,0.75,0],[1,0.25,0],[1,0.5,0],[1,0.75,0]];outlineConnect=0;fontColor=#232F3E;fillColor=#DD344C;strokeColor=#ffffff;dashed=0;verticalLabelPosition=bottom;verticalAlign=top;align=center;html=1;fontSize=12;fontStyle=0;aspect=fixed;shape=mxgraph.aws4.resourceIcon;resIcon=mxgraph.aws4.waf;" parent="aYJNtZo8pQZh-jJPkHBO-2" vertex="1">
          <mxGeometry x="487" y="620" width="78" height="78" as="geometry" />
        </mxCell>
        <mxCell id="aYJNtZo8pQZh-jJPkHBO-67" value="ACM" style="sketch=0;points=[[0,0,0],[0.25,0,0],[0.5,0,0],[0.75,0,0],[1,0,0],[0,1,0],[0.25,1,0],[0.5,1,0],[0.75,1,0],[1,1,0],[0,0.25,0],[0,0.5,0],[0,0.75,0],[1,0.25,0],[1,0.5,0],[1,0.75,0]];outlineConnect=0;fontColor=#232F3E;fillColor=#DD344C;strokeColor=#ffffff;dashed=0;verticalLabelPosition=bottom;verticalAlign=top;align=center;html=1;fontSize=12;fontStyle=0;aspect=fixed;shape=mxgraph.aws4.resourceIcon;resIcon=mxgraph.aws4.certificate_manager_3;" parent="aYJNtZo8pQZh-jJPkHBO-2" vertex="1">
          <mxGeometry x="323.88" y="620" width="78" height="78" as="geometry" />
        </mxCell>
        <mxCell id="aYJNtZo8pQZh-jJPkHBO-69" value="private-app(172.21.98.0/24)" style="points=[[0,0],[0.25,0],[0.5,0],[0.75,0],[1,0],[1,0.25],[1,0.5],[1,0.75],[1,1],[0.75,1],[0.5,1],[0.25,1],[0,1],[0,0.75],[0,0.5],[0,0.25]];outlineConnect=0;gradientColor=none;html=1;whiteSpace=wrap;fontSize=12;fontStyle=0;container=1;pointerEvents=0;collapsible=0;recursiveResize=0;shape=mxgraph.aws4.group;grIcon=mxgraph.aws4.group_security_group;grStroke=0;strokeColor=#00A4A6;fillColor=#E6F6F7;verticalAlign=top;align=left;spacingLeft=30;fontColor=#147EBA;dashed=0;" parent="aYJNtZo8pQZh-jJPkHBO-2" vertex="1">
          <mxGeometry x="675" y="215" width="230" height="350" as="geometry" />
        </mxCell>
        <mxCell id="aYJNtZo8pQZh-jJPkHBO-73" value="Redis&lt;br&gt;(C2-GSS-U-RED-JOB-001)" style="sketch=0;points=[[0,0,0],[0.25,0,0],[0.5,0,0],[0.75,0,0],[1,0,0],[0,1,0],[0.25,1,0],[0.5,1,0],[0.75,1,0],[1,1,0],[0,0.25,0],[0,0.5,0],[0,0.75,0],[1,0.25,0],[1,0.5,0],[1,0.75,0]];outlineConnect=0;fontColor=#232F3E;fillColor=#ED7100;strokeColor=#ffffff;dashed=0;verticalLabelPosition=bottom;verticalAlign=top;align=center;html=1;fontSize=12;fontStyle=0;aspect=fixed;shape=mxgraph.aws4.resourceIcon;resIcon=mxgraph.aws4.ec2;" parent="aYJNtZo8pQZh-jJPkHBO-69" vertex="1">
          <mxGeometry x="73" y="232" width="78" height="78" as="geometry" />
        </mxCell>
        <mxCell id="aYJNtZo8pQZh-jJPkHBO-72" value="API&lt;br&gt;(C2-GSS-U-APP-JOB-001)" style="sketch=0;points=[[0,0,0],[0.25,0,0],[0.5,0,0],[0.75,0,0],[1,0,0],[0,1,0],[0.25,1,0],[0.5,1,0],[0.75,1,0],[1,1,0],[0,0.25,0],[0,0.5,0],[0,0.75,0],[1,0.25,0],[1,0.5,0],[1,0.75,0]];outlineConnect=0;fontColor=#232F3E;fillColor=#ED7100;strokeColor=#ffffff;dashed=0;verticalLabelPosition=bottom;verticalAlign=top;align=center;html=1;fontSize=12;fontStyle=0;aspect=fixed;shape=mxgraph.aws4.resourceIcon;resIcon=mxgraph.aws4.ec2;" parent="aYJNtZo8pQZh-jJPkHBO-69" vertex="1">
          <mxGeometry x="71" y="87" width="78" height="78" as="geometry" />
        </mxCell>
        <mxCell id="aYJNtZo8pQZh-jJPkHBO-78" value="YJP-API-UAT-CD" style="points=[[0,0],[0.25,0],[0.5,0],[0.75,0],[1,0],[1,0.25],[1,0.5],[1,0.75],[1,1],[0.75,1],[0.5,1],[0.25,1],[0,1],[0,0.75],[0,0.5],[0,0.25]];outlineConnect=0;gradientColor=none;html=1;whiteSpace=wrap;fontSize=12;fontStyle=0;container=1;pointerEvents=0;collapsible=0;recursiveResize=0;shape=mxgraph.aws4.groupCenter;grIcon=mxgraph.aws4.group_auto_scaling_group;grStroke=1;strokeColor=#D86613;fillColor=none;verticalAlign=top;align=center;fontColor=#D86613;dashed=1;spacingTop=25;" parent="aYJNtZo8pQZh-jJPkHBO-69" vertex="1">
          <mxGeometry x="44" y="40" width="136" height="160" as="geometry" />
        </mxCell>
        <mxCell id="bQRG8dj-d8mDXIb9NdE8-2" value="" style="endArrow=classic;startArrow=classic;html=1;rounded=0;entryX=0.5;entryY=1;entryDx=0;entryDy=0;exitX=0.5;exitY=0;exitDx=0;exitDy=0;exitPerimeter=0;" edge="1" parent="aYJNtZo8pQZh-jJPkHBO-69" source="aYJNtZo8pQZh-jJPkHBO-73" target="aYJNtZo8pQZh-jJPkHBO-78">
          <mxGeometry width="50" height="50" relative="1" as="geometry">
            <mxPoint x="210" y="307" as="sourcePoint" />
            <mxPoint x="422" y="305" as="targetPoint" />
          </mxGeometry>
        </mxCell>
        <mxCell id="aYJNtZo8pQZh-jJPkHBO-70" value="Private subnet" style="points=[[0,0],[0.25,0],[0.5,0],[0.75,0],[1,0],[1,0.25],[1,0.5],[1,0.75],[1,1],[0.75,1],[0.5,1],[0.25,1],[0,1],[0,0.75],[0,0.5],[0,0.25]];outlineConnect=0;gradientColor=none;html=1;whiteSpace=wrap;fontSize=12;fontStyle=0;container=1;pointerEvents=0;collapsible=0;recursiveResize=0;shape=mxgraph.aws4.group;grIcon=mxgraph.aws4.group_security_group;grStroke=0;strokeColor=#00A4A6;fillColor=#E6F6F7;verticalAlign=top;align=left;spacingLeft=30;fontColor=#147EBA;dashed=0;" parent="aYJNtZo8pQZh-jJPkHBO-2" vertex="1">
          <mxGeometry x="995" y="215" width="230" height="350" as="geometry" />
        </mxCell>
        <mxCell id="aYJNtZo8pQZh-jJPkHBO-74" value="RDS&lt;br&gt;(c2-gss-u-db-job-001)" style="sketch=0;points=[[0,0,0],[0.25,0,0],[0.5,0,0],[0.75,0,0],[1,0,0],[0,1,0],[0.25,1,0],[0.5,1,0],[0.75,1,0],[1,1,0],[0,0.25,0],[0,0.5,0],[0,0.75,0],[1,0.25,0],[1,0.5,0],[1,0.75,0]];outlineConnect=0;fontColor=#232F3E;fillColor=#C925D1;strokeColor=#ffffff;dashed=0;verticalLabelPosition=bottom;verticalAlign=top;align=center;html=1;fontSize=12;fontStyle=0;aspect=fixed;shape=mxgraph.aws4.resourceIcon;resIcon=mxgraph.aws4.rds;" parent="aYJNtZo8pQZh-jJPkHBO-70" vertex="1">
          <mxGeometry x="72" y="79" width="78" height="78" as="geometry" />
        </mxCell>
        <mxCell id="bQRG8dj-d8mDXIb9NdE8-15" style="rounded=0;orthogonalLoop=1;jettySize=auto;html=1;entryX=0.5;entryY=0;entryDx=0;entryDy=0;" edge="1" parent="aYJNtZo8pQZh-jJPkHBO-2" source="aYJNtZo8pQZh-jJPkHBO-75" target="aYJNtZo8pQZh-jJPkHBO-78">
          <mxGeometry relative="1" as="geometry" />
        </mxCell>
        <mxCell id="aYJNtZo8pQZh-jJPkHBO-75" value="IAM role&lt;div&gt;(yjp-uat-role)&lt;/div&gt;" style="sketch=0;outlineConnect=0;fontColor=#232F3E;gradientColor=none;fillColor=#DD344C;strokeColor=none;dashed=0;verticalLabelPosition=bottom;verticalAlign=top;align=center;html=1;fontSize=12;fontStyle=0;aspect=fixed;pointerEvents=1;shape=mxgraph.aws4.role;" parent="aYJNtZo8pQZh-jJPkHBO-2" vertex="1">
          <mxGeometry x="835" y="60" width="78" height="44" as="geometry" />
        </mxCell>
        <mxCell id="bQRG8dj-d8mDXIb9NdE8-14" style="rounded=0;orthogonalLoop=1;jettySize=auto;html=1;entryX=0.5;entryY=0;entryDx=0;entryDy=0;" edge="1" parent="aYJNtZo8pQZh-jJPkHBO-2" source="aYJNtZo8pQZh-jJPkHBO-76" target="aYJNtZo8pQZh-jJPkHBO-78">
          <mxGeometry relative="1" as="geometry" />
        </mxCell>
        <mxCell id="aYJNtZo8pQZh-jJPkHBO-76" value="S3&lt;br&gt;(jobportal-uat-storage)" style="sketch=0;points=[[0,0,0],[0.25,0,0],[0.5,0,0],[0.75,0,0],[1,0,0],[0,1,0],[0.25,1,0],[0.5,1,0],[0.75,1,0],[1,1,0],[0,0.25,0],[0,0.5,0],[0,0.75,0],[1,0.25,0],[1,0.5,0],[1,0.75,0]];outlineConnect=0;fontColor=#232F3E;fillColor=#7AA116;strokeColor=#ffffff;dashed=0;verticalLabelPosition=bottom;verticalAlign=top;align=center;html=1;fontSize=12;fontStyle=0;aspect=fixed;shape=mxgraph.aws4.resourceIcon;resIcon=mxgraph.aws4.s3;" parent="aYJNtZo8pQZh-jJPkHBO-2" vertex="1">
          <mxGeometry x="641" y="50" width="78" height="78" as="geometry" />
        </mxCell>
        <mxCell id="bQRG8dj-d8mDXIb9NdE8-1" value="" style="endArrow=classic;startArrow=classic;html=1;rounded=0;entryX=0;entryY=0.5;entryDx=0;entryDy=0;entryPerimeter=0;" edge="1" parent="aYJNtZo8pQZh-jJPkHBO-2" source="aYJNtZo8pQZh-jJPkHBO-78" target="aYJNtZo8pQZh-jJPkHBO-74">
          <mxGeometry width="50" height="50" relative="1" as="geometry">
            <mxPoint x="885" y="400" as="sourcePoint" />
            <mxPoint x="935" y="350" as="targetPoint" />
          </mxGeometry>
        </mxCell>
        <mxCell id="bQRG8dj-d8mDXIb9NdE8-3" value="" style="endArrow=classic;startArrow=classic;html=1;rounded=0;entryX=0;entryY=0.5;entryDx=0;entryDy=0;exitX=1;exitY=0.5;exitDx=0;exitDy=0;exitPerimeter=0;edgeStyle=orthogonalEdgeStyle;" edge="1" parent="aYJNtZo8pQZh-jJPkHBO-2" source="aYJNtZo8pQZh-jJPkHBO-51" target="aYJNtZo8pQZh-jJPkHBO-78">
          <mxGeometry width="50" height="50" relative="1" as="geometry">
            <mxPoint x="615" y="632" as="sourcePoint" />
            <mxPoint x="827" y="630" as="targetPoint" />
          </mxGeometry>
        </mxCell>
        <mxCell id="bQRG8dj-d8mDXIb9NdE8-5" style="rounded=0;orthogonalLoop=1;jettySize=auto;html=1;exitX=0;exitY=0.25;exitDx=0;exitDy=0;" edge="1" parent="aYJNtZo8pQZh-jJPkHBO-2" source="aYJNtZo8pQZh-jJPkHBO-69" target="aYJNtZo8pQZh-jJPkHBO-71">
          <mxGeometry relative="1" as="geometry" />
        </mxCell>
        <mxCell id="bQRG8dj-d8mDXIb9NdE8-10" value="yoma-server-farm(172.21.0.0/16)" style="points=[[0,0],[0.25,0],[0.5,0],[0.75,0],[1,0],[1,0.25],[1,0.5],[1,0.75],[1,1],[0.75,1],[0.5,1],[0.25,1],[0,1],[0,0.75],[0,0.5],[0,0.25]];outlineConnect=0;gradientColor=none;html=1;whiteSpace=wrap;fontSize=12;fontStyle=0;container=1;pointerEvents=0;collapsible=0;recursiveResize=0;shape=mxgraph.aws4.group;grIcon=mxgraph.aws4.group_vpc2;strokeColor=#8C4FFF;fillColor=none;verticalAlign=top;align=left;spacingLeft=30;fontColor=#AAB7B8;dashed=0;" vertex="1" parent="aYJNtZo8pQZh-jJPkHBO-2">
          <mxGeometry x="309" y="170" width="961" height="430" as="geometry" />
        </mxCell>
        <mxCell id="bQRG8dj-d8mDXIb9NdE8-11" style="rounded=0;orthogonalLoop=1;jettySize=auto;html=1;entryX=0.5;entryY=1;entryDx=0;entryDy=0;entryPerimeter=0;" edge="1" parent="aYJNtZo8pQZh-jJPkHBO-2" source="aYJNtZo8pQZh-jJPkHBO-67" target="aYJNtZo8pQZh-jJPkHBO-51">
          <mxGeometry relative="1" as="geometry" />
        </mxCell>
        <mxCell id="aYJNtZo8pQZh-jJPkHBO-40" style="rounded=0;orthogonalLoop=1;jettySize=auto;html=1;entryX=0;entryY=0.5;entryDx=0;entryDy=0;entryPerimeter=0;" parent="1" source="aYJNtZo8pQZh-jJPkHBO-34" target="aYJNtZo8pQZh-jJPkHBO-32" edge="1">
          <mxGeometry relative="1" as="geometry" />
        </mxCell>
        <mxCell id="aYJNtZo8pQZh-jJPkHBO-41" style="rounded=0;orthogonalLoop=1;jettySize=auto;html=1;entryX=0;entryY=0.75;entryDx=0;entryDy=0;entryPerimeter=0;" parent="1" source="aYJNtZo8pQZh-jJPkHBO-34" target="aYJNtZo8pQZh-jJPkHBO-33" edge="1">
          <mxGeometry relative="1" as="geometry" />
        </mxCell>
        <mxCell id="aYJNtZo8pQZh-jJPkHBO-31" value="Route53" style="sketch=0;points=[[0,0,0],[0.25,0,0],[0.5,0,0],[0.75,0,0],[1,0,0],[0,1,0],[0.25,1,0],[0.5,1,0],[0.75,1,0],[1,1,0],[0,0.25,0],[0,0.5,0],[0,0.75,0],[1,0.25,0],[1,0.5,0],[1,0.75,0]];outlineConnect=0;fontColor=#232F3E;fillColor=#8C4FFF;strokeColor=#ffffff;dashed=0;verticalLabelPosition=bottom;verticalAlign=top;align=center;html=1;fontSize=12;fontStyle=0;aspect=fixed;shape=mxgraph.aws4.resourceIcon;resIcon=mxgraph.aws4.route_53;" parent="1" vertex="1">
          <mxGeometry x="13" y="1339" width="78" height="78" as="geometry" />
        </mxCell>
        <mxCell id="aYJNtZo8pQZh-jJPkHBO-38" value="" style="edgeStyle=orthogonalEdgeStyle;rounded=0;orthogonalLoop=1;jettySize=auto;html=1;" parent="1" source="aYJNtZo8pQZh-jJPkHBO-31" target="aYJNtZo8pQZh-jJPkHBO-34" edge="1">
          <mxGeometry relative="1" as="geometry">
            <Array as="points">
              <mxPoint x="150" y="1378" />
              <mxPoint x="150" y="1599" />
            </Array>
          </mxGeometry>
        </mxCell>
        <mxCell id="aYJNtZo8pQZh-jJPkHBO-54" value="&lt;span style=&quot;color: rgb(15, 20, 26); font-family: monospace, monospace; font-size: 14px; text-align: start; text-wrap-mode: wrap; background-color: rgb(246, 246, 249);&quot;&gt;Job Portal Seeker&lt;br&gt;https://uat.yomarecruit.com&lt;/span&gt;" style="edgeLabel;html=1;align=center;verticalAlign=middle;resizable=0;points=[];" parent="aYJNtZo8pQZh-jJPkHBO-38" vertex="1" connectable="0">
          <mxGeometry x="0.4221" y="3" relative="1" as="geometry">
            <mxPoint y="-40" as="offset" />
          </mxGeometry>
        </mxCell>
        <mxCell id="aYJNtZo8pQZh-jJPkHBO-56" style="edgeStyle=orthogonalEdgeStyle;rounded=0;orthogonalLoop=1;jettySize=auto;html=1;entryX=0;entryY=0.5;entryDx=0;entryDy=0;entryPerimeter=0;" parent="1" source="aYJNtZo8pQZh-jJPkHBO-31" target="aYJNtZo8pQZh-jJPkHBO-49" edge="1">
          <mxGeometry relative="1" as="geometry">
            <Array as="points">
              <mxPoint x="150" y="1378" />
              <mxPoint x="150" y="1170" />
            </Array>
          </mxGeometry>
        </mxCell>
        <mxCell id="aYJNtZo8pQZh-jJPkHBO-57" value="&lt;span style=&quot;color: rgb(15, 20, 26); font-family: monospace, monospace; font-size: 14px; text-align: start; text-wrap-mode: wrap; background-color: rgb(246, 246, 249);&quot;&gt;Job Portal Admin&lt;br&gt;https://uat-recruit.yomaconnect.com&lt;/span&gt;" style="edgeLabel;html=1;align=center;verticalAlign=middle;resizable=0;points=[];" parent="aYJNtZo8pQZh-jJPkHBO-56" vertex="1" connectable="0">
          <mxGeometry x="-0.0555" y="2" relative="1" as="geometry">
            <mxPoint x="13" y="-18" as="offset" />
          </mxGeometry>
        </mxCell>
        <mxCell id="aYJNtZo8pQZh-jJPkHBO-80" style="edgeStyle=orthogonalEdgeStyle;rounded=0;orthogonalLoop=1;jettySize=auto;html=1;entryX=0;entryY=0.5;entryDx=0;entryDy=0;entryPerimeter=0;" parent="1" source="aYJNtZo8pQZh-jJPkHBO-31" target="aYJNtZo8pQZh-jJPkHBO-51" edge="1">
          <mxGeometry relative="1" as="geometry">
            <Array as="points">
              <mxPoint x="150" y="1378" />
              <mxPoint x="150" y="757" />
            </Array>
          </mxGeometry>
        </mxCell>
        <mxCell id="aYJNtZo8pQZh-jJPkHBO-81" value="&lt;span style=&quot;color: rgb(15, 20, 26); font-family: monospace, monospace; font-size: 14px; text-align: start; text-wrap-mode: wrap; background-color: rgb(246, 246, 249);&quot;&gt;Job Portal API&lt;br&gt;https://uatapi-recruit.yomaconnect.com&lt;/span&gt;" style="edgeLabel;html=1;align=center;verticalAlign=middle;resizable=0;points=[];" parent="aYJNtZo8pQZh-jJPkHBO-80" vertex="1" connectable="0">
          <mxGeometry x="0.5805" y="1" relative="1" as="geometry">
            <mxPoint as="offset" />
          </mxGeometry>
        </mxCell>
        <mxCell id="bQRG8dj-d8mDXIb9NdE8-8" value="Internet" style="image;aspect=fixed;perimeter=ellipsePerimeter;html=1;align=center;shadow=0;dashed=0;spacingTop=3;image=img/lib/active_directory/internet_cloud.svg;" vertex="1" parent="1">
          <mxGeometry x="-148" y="593.12" width="98.02" height="61.75" as="geometry" />
        </mxCell>
        <mxCell id="bQRG8dj-d8mDXIb9NdE8-9" style="rounded=0;orthogonalLoop=1;jettySize=auto;html=1;entryX=1;entryY=0.5;entryDx=0;entryDy=0;" edge="1" parent="1" source="aYJNtZo8pQZh-jJPkHBO-71" target="bQRG8dj-d8mDXIb9NdE8-8">
          <mxGeometry relative="1" as="geometry" />
        </mxCell>
        <mxCell id="bQRG8dj-d8mDXIb9NdE8-19" value="" style="edgeStyle=orthogonalEdgeStyle;rounded=0;orthogonalLoop=1;jettySize=auto;html=1;" edge="1" parent="1" source="bQRG8dj-d8mDXIb9NdE8-18" target="aYJNtZo8pQZh-jJPkHBO-31">
          <mxGeometry relative="1" as="geometry" />
        </mxCell>
        <mxCell id="bQRG8dj-d8mDXIb9NdE8-18" value="User" style="html=1;verticalLabelPosition=bottom;align=center;labelBackgroundColor=#ffffff;verticalAlign=top;strokeWidth=2;strokeColor=#0080F0;shadow=0;dashed=0;shape=mxgraph.ios7.icons.user;" vertex="1" parent="1">
          <mxGeometry x="-140" y="1349.5" width="53.99" height="57" as="geometry" />
        </mxCell>
      </root>
    </mxGraphModel>
  </diagram>
</mxfile>
